<svg width="128" height="128" viewBox="0 0 128 128" fill="none" xmlns="http://www.w3.org/2000/svg">
<path d="M16 21.9589H26.5884L29.753 16H55.1891L58.3537 21.9589H68.9421H79.5306H90.119H100.707L112 112H27.2926L16 21.9589Z" fill="#6BA8D5" stroke="#ECECEC" stroke-width="0.337216"/>
<path opacity="0.25" d="M23.657 29.3597L108.155 28.7646L112 112H27.2925L23.657 29.3597Z" fill="black" stroke="#ECECEC" stroke-width="0.337216"/>
<path d="M28.4712 27.0568H105.942V107.148H28.4712L28.4712 27.0568Z" fill="#999999" stroke="#ECECEC" stroke-width="0.322518"/>
<path d="M29.3598 28.7596H109.046L109.046 108.846H29.3598V28.7596Z" fill="white" stroke="#ECECEC" stroke-width="0.327088"/>
<path d="M27.2925 31.9229H112L112 112H27.2925V31.9229Z" fill="#2196F3" stroke="#ECECEC" stroke-width="0.337216"/>
<path opacity="0.2" d="M25.9899 31.9229H112L112 112L25.9899 31.9229Z" fill="black" fill-opacity="0.470588" stroke="#ECECEC" stroke-width="0.337216"/>
<path d="M96.6125 72.356C96.6125 87.8267 84.8022 100.37 70.2356 100.37C55.6689 100.37 43.8586 87.8267 43.8586 72.356H48.2548C48.2548 85.2284 58.1154 95.701 70.2356 95.701C82.3558 95.701 92.2164 85.2284 92.2164 72.356C92.2164 59.4835 82.3558 49.011 70.2356 49.011C64.1315 49.011 58.6143 51.6746 54.6314 55.9608L59.1617 60.7721L43.8586 63.9331L46.7271 47.5613L51.5168 52.6504C56.291 47.5238 62.9072 44.342 70.2356 44.342C84.8022 44.342 96.6125 56.8852 96.6125 72.356ZM68.0375 58.3491V77.025H83.4241V72.356H72.4336V58.3491H68.0375Z" fill="white"/>
</svg>
