<?xml version="1.0" encoding="UTF-8" standalone="no"?>
<!-- Created with Inkscape (http://www.inkscape.org/) -->

<svg
   xmlns:dc="http://purl.org/dc/elements/1.1/"
   xmlns:cc="http://creativecommons.org/ns#"
   xmlns:rdf="http://www.w3.org/1999/02/22-rdf-syntax-ns#"
   xmlns:svg="http://www.w3.org/2000/svg"
   xmlns="http://www.w3.org/2000/svg"
   xmlns:sodipodi="http://sodipodi.sourceforge.net/DTD/sodipodi-0.dtd"
   xmlns:inkscape="http://www.inkscape.org/namespaces/inkscape"
   width="1122.5197"
   height="793.70081"
   viewBox="0 0 296.99998 210.00001"
   version="1.1"
   id="svg8"
   sodipodi:docname="icon.svg"
   inkscape:version="0.92.4 (unknown)">
  <defs
     id="defs2" />
  <sodipodi:namedview
     id="base"
     pagecolor="#ffffff"
     bordercolor="#666666"
     borderopacity="1.0"
     inkscape:pageopacity="0.0"
     inkscape:pageshadow="2"
     inkscape:zoom="4"
     inkscape:cx="344.18074"
     inkscape:cy="161.97262"
     inkscape:document-units="px"
     inkscape:current-layer="layer1"
     showgrid="false"
     units="px"
     inkscape:object-nodes="true"
     inkscape:window-width="1920"
     inkscape:window-height="1052"
     inkscape:window-x="0"
     inkscape:window-y="28"
     inkscape:window-maximized="1" />
  <metadata
     id="metadata5">
    <rdf:RDF>
      <cc:Work
         rdf:about="">
        <dc:format>image/svg+xml</dc:format>
        <dc:type
           rdf:resource="http://purl.org/dc/dcmitype/StillImage" />
        <dc:title></dc:title>
      </cc:Work>
    </rdf:RDF>
  </metadata>
  <g
     inkscape:label="Layer 1"
     inkscape:groupmode="layer"
     id="layer1"
     transform="translate(0,-86.999987)">
    <g
       id="g886"
       transform="matrix(1.3327589,0,0,1.3327589,-23.113726,-90.182594)">
      <path
         sodipodi:nodetypes="cccccccccccc"
         inkscape:connector-curvature="0"
         style="opacity:1;fill:#6ba8d5;fill-opacity:1;stroke:#ececec;stroke-width:0.06694511;stroke-opacity:1"
         d="m 69.498832,247.2231 h 2.794359 l 0.835162,-1.56944 h 6.712753 l 0.835163,1.56944 h 2.79436 2.794359 2.79436 2.794359 l 2.980189,23.71497 H 72.479019 Z"
         id="path818" />
      <path
         sodipodi:nodetypes="ccccc"
         inkscape:connector-curvature="0"
         style="opacity:0.25;fill:#000000;fill-opacity:1;stroke:#ececec;stroke-width:0.06694511;stroke-opacity:1"
         d="m 71.519577,249.1723 22.299689,-0.15674 1.01463,21.92251 H 72.479019 Z"
         id="path826" />
      <path
         inkscape:connector-curvature="0"
         style="opacity:1;fill:#999999;fill-opacity:1;stroke:#ececec;stroke-width:0.06402718;stroke-opacity:1"
         d="m 72.790074,248.56577 h 20.444965 v 21.09439 H 72.790073 Z"
         id="path822" />
      <path
         inkscape:connector-curvature="0"
         style="opacity:1;fill:#ffffff;fill-opacity:1;stroke:#ececec;stroke-width:0.06493442;stroke-opacity:1"
         d="m 73.024575,249.01427 h 21.029621 l -2e-6,21.09324 H 73.024576 Z"
         id="path824" />
      <path
         inkscape:connector-curvature="0"
         id="rect815"
         d="m 72.479019,249.84741 h 22.354879 l -2e-6,21.09066 H 72.479019 Z"
         style="opacity:1;fill:#2196f3;fill-opacity:1;stroke:#ececec;stroke-width:0.06694511;stroke-opacity:1" />
      <path
         sodipodi:nodetypes="ccccc"
         style="opacity:0.2;fill:#000000;fill-opacity:0.47058824;stroke:#ececec;stroke-width:0.06694511;stroke-opacity:1"
         d="m 72.135236,249.84741 h 22.698662 l -2e-6,21.09066 v 0 z"
         id="path970"
         inkscape:connector-curvature="0" />
      <path
         style="fill:#ffffff;stroke-width:0.59722096"
         inkscape:connector-curvature="0"
         d="m 90.77304,260.49668 c 0,4.07465 -3.11681,7.37831 -6.96105,7.37831 -3.84425,0 -6.96106,-3.30366 -6.96106,-7.37831 h 1.16017 c 0,3.39031 2.60228,6.14858 5.80089,6.14858 3.1986,0 5.80088,-2.75827 5.80088,-6.14858 0,-3.39036 -2.60228,-6.14861 -5.80088,-6.14861 -1.61091,0 -3.06693,0.70154 -4.11805,1.83043 l 1.19556,1.26721 -4.03857,0.83255 0.75701,-4.31201 1.26402,1.34038 c 1.25995,-1.35024 3.00601,-2.18828 4.94003,-2.18828 3.84424,0 6.96105,3.30363 6.96105,7.37833 z m -7.54114,-3.68916 v 4.91886 h 4.06062 v -1.2297 h -2.90045 v -3.68916 z"
         id="path860" />
    </g>
  </g>
</svg>
